<svg width="132" height="26" viewBox="0 0 132 26" fill="none" xmlns="http://www.w3.org/2000/svg">
<path d="M0.32 21.752C0.256 20.984 0.2 20 0.152 18.8C0.12 17.6 0.104 16.296 0.104 14.888C0.104 13.64 0.112 12.352 0.128 11.024C0.16 9.696 0.2 8.392 0.248 7.112C0.312 5.816 0.376 4.608 0.44 3.488C0.52 2.352 0.608 1.36 0.704 0.511999L4.88 0.8C4.656 2.432 4.48 4.088 4.352 5.768C4.24 7.432 4.168 9.128 4.136 10.856C5.032 10.232 6.072 9.576 7.256 8.888C8.456 8.184 9.896 7.392 11.576 6.512L13.832 10.28C12.104 10.824 10.576 11.448 9.248 12.152C7.92 12.84 6.832 13.536 5.984 14.24C5.824 14.352 5.72 14.432 5.672 14.48C5.624 14.528 5.6 14.56 5.6 14.576C5.6 14.672 5.864 14.848 6.392 15.104C7.096 15.472 7.824 15.832 8.576 16.184C9.328 16.536 10.168 16.896 11.096 17.264C12.024 17.616 13.088 17.992 14.288 18.392L12.632 21.944C11.176 21.512 9.72 20.968 8.264 20.312C6.808 19.656 5.488 18.992 4.304 18.32C4.32 18.864 4.344 19.416 4.376 19.976C4.424 20.536 4.464 21.096 4.496 21.656L0.32 21.752ZM15.4846 21.728C15.4366 20.32 15.3966 19.016 15.3646 17.816C15.3486 16.616 15.3406 15.432 15.3406 14.264C15.3406 13.096 15.3486 11.928 15.3646 10.76C15.3966 9.576 15.4446 8.312 15.5086 6.968H19.5646C19.5006 7.688 19.4446 8.416 19.3966 9.152C19.9406 8.464 20.5886 7.896 21.3406 7.448C22.0926 6.984 22.9806 6.752 24.0046 6.752C25.0126 6.752 25.8366 6.92 26.4766 7.256C27.1326 7.592 27.6446 8.056 28.0126 8.648C28.3966 9.24 28.6686 9.92 28.8286 10.688C29.0046 11.44 29.1166 12.256 29.1646 13.136C29.2126 14 29.2366 14.872 29.2366 15.752C29.2366 16.712 29.2206 17.632 29.1886 18.512C29.1566 19.392 29.1246 20.128 29.0926 20.72C29.0606 21.312 29.0366 21.664 29.0206 21.776H24.9886C25.0206 21.12 25.0526 20.424 25.0846 19.688C25.1166 18.936 25.1486 18.2 25.1806 17.48C25.2126 16.744 25.2286 16.08 25.2286 15.488C25.2286 12.08 24.6766 10.376 23.5726 10.376C22.6606 10.376 21.8286 10.776 21.0766 11.576C20.3406 12.36 19.7246 13.352 19.2286 14.552C19.2286 14.712 19.2286 14.872 19.2286 15.032C19.2286 15.8 19.2286 16.6 19.2286 17.432C19.2446 18.248 19.2606 19.032 19.2766 19.784C19.3086 20.52 19.3326 21.16 19.3486 21.704L15.4846 21.728ZM37.6057 21.896C36.4057 21.896 35.3177 21.584 34.3417 20.96C33.3657 20.352 32.5897 19.528 32.0137 18.488C31.4537 17.432 31.1737 16.256 31.1737 14.96C31.1737 13.744 31.3977 12.648 31.8457 11.672C32.2937 10.68 32.9017 9.832 33.6697 9.128C34.4537 8.424 35.3417 7.888 36.3337 7.52C37.3257 7.136 38.3657 6.944 39.4537 6.944C40.3657 6.944 41.2617 7.072 42.1417 7.328C42.2057 6.992 42.2617 6.656 42.3097 6.32L46.4137 7.016C46.3017 7.32 46.1897 7.776 46.0777 8.384C45.9657 8.992 45.8697 9.672 45.7897 10.424C45.7257 11.176 45.6697 11.928 45.6217 12.68C45.5737 13.432 45.5497 14.112 45.5497 14.72C45.5497 15.216 45.5817 15.704 45.6457 16.184C45.7257 16.648 45.8857 17.032 46.1257 17.336C46.3657 17.624 46.7337 17.768 47.2297 17.768H47.5657L46.9657 21.944C45.9097 21.944 45.0377 21.76 44.3497 21.392C43.6617 21.04 43.1097 20.56 42.6937 19.952C42.0057 20.72 41.2217 21.232 40.3417 21.488C39.4617 21.76 38.5497 21.896 37.6057 21.896ZM35.1097 15.44C35.1897 16.208 35.5017 16.824 36.0457 17.288C36.6057 17.736 37.3097 17.96 38.1577 17.96C38.9737 17.96 39.6537 17.744 40.1977 17.312C40.7417 16.864 41.1897 16.256 41.5417 15.488C41.5257 15.232 41.5177 14.968 41.5177 14.696C41.5177 14.136 41.5337 13.56 41.5657 12.968C41.5977 12.376 41.6377 11.792 41.6857 11.216C41.0137 10.96 40.3097 10.832 39.5737 10.832C38.7097 10.832 37.9337 11.008 37.2457 11.36C36.5737 11.696 36.0457 12.168 35.6617 12.776C35.2777 13.384 35.0857 14.088 35.0857 14.888C35.0857 14.984 35.0857 15.08 35.0857 15.176C35.0857 15.272 35.0937 15.36 35.1097 15.44ZM54.3941 21.968C53.3701 21.968 52.5221 21.784 51.8501 21.416C51.1941 21.064 50.6661 20.576 50.2661 19.952C49.8821 19.328 49.5941 18.632 49.4021 17.864C49.2261 17.08 49.1061 16.272 49.0421 15.44C48.9941 14.592 48.9701 13.776 48.9701 12.992C48.9701 12.096 48.9941 11.184 49.0421 10.256C49.1061 9.328 49.1701 8.312 49.2341 7.208L53.6261 6.944C53.5781 7.28 53.5061 7.784 53.4101 8.456C53.3141 9.128 53.2261 9.896 53.1461 10.76C53.0661 11.624 53.0261 12.528 53.0261 13.472C53.0261 15.024 53.1621 16.176 53.4341 16.928C53.7061 17.664 54.1141 18.032 54.6581 18.032C55.7461 18.032 56.5461 17.24 57.0581 15.656C57.5701 14.072 57.8261 11.568 57.8261 8.144V7.04L59.8661 6.992L62.3381 6.944C62.1141 8.448 61.9461 9.832 61.8341 11.096C61.7221 12.36 61.6501 13.424 61.6181 14.288C61.5861 15.136 61.5701 15.704 61.5701 15.992C61.5701 16.728 61.6341 17.256 61.7621 17.576C61.8901 17.88 62.1141 18.032 62.4341 18.032C62.5941 18.032 62.7701 18 62.9621 17.936C63.1541 17.872 63.3781 17.76 63.6341 17.6L63.4661 21.728C62.8581 21.824 62.3301 21.872 61.8821 21.872C61.1141 21.872 60.4821 21.728 59.9861 21.44C59.5061 21.152 59.1221 20.768 58.8341 20.288C58.3381 20.816 57.7221 21.224 56.9861 21.512C56.2661 21.816 55.4021 21.968 54.3941 21.968ZM71.1809 20.12C70.1729 20.12 69.3169 19.968 68.6129 19.664C67.9089 19.36 67.3249 18.968 66.8609 18.488C66.4129 17.992 66.0609 17.464 65.8049 16.904C65.5489 16.328 65.3729 15.776 65.2769 15.248C65.1809 14.704 65.1329 14.232 65.1329 13.832C65.1329 13.064 65.2369 12.272 65.4449 11.456C65.6689 10.64 66.0369 9.88 66.5489 9.176C67.0769 8.472 67.7889 7.904 68.6849 7.472C69.5969 7.04 70.7409 6.824 72.1169 6.824C72.5329 6.824 72.9169 6.856 73.2689 6.92C73.6209 6.984 73.9489 7.072 74.2529 7.184V6.392H78.4049C78.3889 7.352 78.3729 8.44 78.3569 9.656C78.3409 10.856 78.3329 12.216 78.3329 13.736C78.3329 14.52 78.3329 15.344 78.3329 16.208C78.3489 17.056 78.3569 17.984 78.3569 18.992C78.3569 20.368 78.1729 21.496 77.8049 22.376C77.4369 23.256 76.9649 23.936 76.3889 24.416C75.8129 24.896 75.2129 25.24 74.5889 25.448C73.9809 25.672 73.4129 25.8 72.8849 25.832C72.3729 25.88 71.9889 25.904 71.7329 25.904C71.1089 25.904 70.4209 25.832 69.6689 25.688C68.9169 25.56 68.1649 25.344 67.4129 25.04C66.6609 24.752 65.9729 24.376 65.3489 23.912L67.1009 20.264C67.5009 20.6 67.9009 20.904 68.3009 21.176C68.7009 21.464 69.1649 21.688 69.6929 21.848C70.2209 22.024 70.8769 22.112 71.6609 22.112C72.4609 22.112 73.0529 21.968 73.4369 21.68C73.8209 21.408 74.0689 21.04 74.1809 20.576C74.3089 20.128 74.3809 19.632 74.3969 19.088C73.8529 19.488 73.3009 19.76 72.7409 19.904C72.1809 20.048 71.6609 20.12 71.1809 20.12ZM68.7329 13.496C68.7329 14.408 68.9809 15.128 69.4769 15.656C69.9889 16.184 70.6849 16.448 71.5649 16.448C72.7969 16.448 73.7169 15.736 74.3249 14.312C74.3249 13.8 74.3169 13.28 74.3009 12.752C74.3009 12.208 74.2929 11.68 74.2769 11.168C73.6369 10.752 72.9009 10.544 72.0689 10.544C71.0449 10.544 70.2289 10.816 69.6209 11.36C69.0289 11.888 68.7329 12.6 68.7329 13.496ZM80.5203 21.656C80.5203 20.68 80.5203 19.432 80.5203 17.912C80.5363 16.376 80.5523 14.672 80.5683 12.8C80.6003 10.928 80.6403 8.96 80.6883 6.896C80.7523 4.832 80.8243 2.768 80.9043 0.704L84.9843 0.679998C84.9203 1.592 84.8563 2.704 84.7923 4.016C84.7283 5.328 84.6723 6.736 84.6243 8.24C85.7283 7.216 86.9923 6.704 88.4163 6.704C89.3923 6.704 90.2003 6.88 90.8403 7.232C91.4963 7.584 92.0243 8.048 92.4243 8.624C92.8243 9.184 93.1283 9.8 93.3363 10.472C93.5443 11.144 93.6883 11.808 93.7683 12.464C93.8483 13.104 93.8883 13.672 93.8883 14.168C93.8883 15.224 93.8803 16.272 93.8643 17.312C93.8483 18.352 93.8323 19.264 93.8163 20.048C93.8163 20.832 93.8163 21.384 93.8163 21.704L89.6163 21.728C89.6803 21.104 89.7203 20.384 89.7363 19.568C89.7683 18.752 89.7843 17.912 89.7843 17.048C89.8003 16.168 89.8083 15.336 89.8083 14.552C89.8083 11.96 89.2003 10.664 87.9843 10.664C87.6163 10.664 87.2083 10.76 86.7603 10.952C86.3123 11.144 85.8803 11.448 85.4643 11.864C85.0643 12.28 84.7443 12.832 84.5043 13.52C84.4883 14.576 84.4803 15.6 84.4803 16.592C84.4803 17.504 84.4883 18.36 84.5043 19.16C84.5363 19.944 84.5603 20.736 84.5763 21.536L80.5203 21.656ZM103.446 21.896C102.486 21.896 101.726 21.688 101.166 21.272C100.606 20.872 100.198 20.312 99.9418 19.592C99.6858 18.872 99.5178 18.048 99.4378 17.12C99.3738 16.192 99.3418 15.216 99.3418 14.192C99.3418 13.136 99.3818 12.04 99.4618 10.904C98.3898 11.048 97.3578 11.232 96.3658 11.456L95.6218 7.688C96.9498 7.336 98.3658 7.08 99.8698 6.92C99.9818 6.104 100.102 5.248 100.23 4.352C100.358 3.44 100.502 2.48 100.662 1.472L104.79 1.832C104.598 2.664 104.43 3.496 104.286 4.328C104.142 5.144 104.014 5.936 103.902 6.704C104.798 6.704 105.638 6.728 106.422 6.776C107.222 6.808 107.958 6.872 108.63 6.968L108.15 10.736C107.59 10.672 107.006 10.632 106.398 10.616C105.806 10.584 105.206 10.568 104.598 10.568C104.23 10.568 103.862 10.576 103.494 10.592C103.398 11.76 103.334 12.76 103.302 13.592C103.286 14.424 103.278 15.016 103.278 15.368C103.278 16.248 103.326 16.88 103.422 17.264C103.534 17.648 103.71 17.84 103.95 17.84C104.222 17.84 104.526 17.752 104.862 17.576C105.198 17.384 105.526 17.128 105.846 16.808C106.182 16.488 106.462 16.144 106.686 15.776L108.534 19.64C106.95 21.144 105.254 21.896 103.446 21.896ZM117.388 21.992C116.3 21.992 115.292 21.864 114.364 21.608C113.436 21.352 112.596 21.024 111.844 20.624C111.092 20.224 110.42 19.8 109.828 19.352L111.988 15.872C112.66 16.496 113.308 16.976 113.932 17.312C114.556 17.648 115.204 17.88 115.876 18.008C116.564 18.136 117.308 18.2 118.108 18.2C118.796 18.2 119.348 18.112 119.764 17.936C120.18 17.744 120.388 17.504 120.388 17.216C120.388 16.976 120.188 16.792 119.788 16.664C119.388 16.52 118.876 16.4 118.252 16.304C117.628 16.192 116.972 16.056 116.284 15.896C115.308 15.64 114.396 15.344 113.548 15.008C112.7 14.672 112.012 14.216 111.484 13.64C110.972 13.064 110.716 12.296 110.716 11.336C110.716 10.568 110.9 9.896 111.268 9.32C111.636 8.728 112.124 8.24 112.732 7.856C113.356 7.456 114.06 7.16 114.844 6.968C115.628 6.776 116.436 6.68 117.268 6.68C118.708 6.68 119.948 6.856 120.988 7.208C122.044 7.544 123.052 7.992 124.012 8.552L121.828 11.864C121.348 11.528 120.796 11.24 120.172 11C119.564 10.744 118.948 10.552 118.324 10.424C117.716 10.28 117.148 10.208 116.62 10.208C116.044 10.208 115.588 10.296 115.252 10.472C114.932 10.648 114.772 10.896 114.772 11.216C114.772 11.408 114.972 11.592 115.372 11.768C115.788 11.928 116.572 12.144 117.724 12.416C118.412 12.576 119.14 12.744 119.908 12.92C120.676 13.08 121.396 13.312 122.068 13.616C122.756 13.904 123.308 14.328 123.724 14.888C124.156 15.432 124.372 16.16 124.372 17.072C124.372 18.608 123.756 19.808 122.524 20.672C121.292 21.552 119.58 21.992 117.388 21.992Z" fill="white"/>
<path d="M128.526 21.944C127.918 21.944 127.414 21.808 127.014 21.536C126.614 21.264 126.318 20.912 126.126 20.48C125.934 20.048 125.838 19.6 125.838 19.136C125.838 18.256 126.118 17.584 126.678 17.12C127.238 16.64 127.91 16.4 128.694 16.4C129.494 16.4 130.126 16.64 130.59 17.12C131.054 17.6 131.286 18.24 131.286 19.04C131.286 20.064 131.006 20.8 130.446 21.248C129.902 21.712 129.262 21.944 128.526 21.944Z" fill="#D37218"/>
</svg>
